<svg xmlns="http://www.w3.org/2000/svg" version="1.1" xmlns:xlink="http://www.w3.org/1999/xlink" xmlns:svgjs="http://svgjs.dev/svgjs" viewBox="0 0 800 800"><g transform="matrix(1,0,0,1,0,0)"><path d="M653.2686906787286 586.4525380965126C653.7212248867313 586.1913144069545 654.2787751132687 586.1913144069545 654.7313093212714 586.4526112274448L662.7686912857725 591.0929882637081C663.2212254937751 591.3542119532663 663.5000006070438 591.8370954981017 663.5000006070438 592.3596160081502V601.6403700806768C663.5000006070438 602.1628905907253 663.2212254937751 602.6457741355607 662.7686912857725 602.907070956051L654.7313093212714 607.5474479923143C654.2787751132687 607.8086716818725 653.7212248867313 607.8086716818725 653.2686906787286 607.5473748613822L645.2313087142275 602.9069978251189C644.7787745062249 602.6457741355607 644.4999993929562 602.1628905907253 644.4999993929562 601.6403700806768V592.3596160081502C644.4999993929562 591.8370954981017 644.7787745062249 591.3542119532663 645.2313087142275 591.0929151327759L653.2686906787286 586.4525380965126Z " stroke-width="0.5" stroke="#666666 " fill="none" opacity=".1" transform="matrix(-0.4383711467890775,0.27273516679909104,-0.8987940462991669,-1.7219820724829122,934.8660772352978,1391.5890308555367)"></path><path d="M587.0647706882384 498.20471474485277C589.1904905863564 496.97765083469153 591.8095094136436 496.97765083469153 593.9352293117616 498.20505826778395L631.6897735397471 520.0026188197053C633.8154934378651 521.2296827298665 635.1250028515087 523.4979646444227 635.1250028515087 525.9524359876764V569.5475570915189C635.1250028515087 572.0020284347727 633.8154934378651 574.270310349329 631.6897735397471 575.4977177824214L593.9352293117616 597.2952783343426C591.8095094136436 598.5223422445039 589.1904905863564 598.5223422445039 587.0647706882384 597.2949348114114L549.310226460253 575.4973742594902C547.1845065621349 574.270310349329 545.8749971484913 572.0020284347727 545.8749971484913 569.5475570915189V525.9524359876764C545.8749971484913 523.4979646444227 547.1845065621349 521.2296827298665 549.310226460253 520.0022752967741L587.0647706882384 498.20471474485277Z " stroke-width="4.375" stroke="#595959" fill="none" opacity="0.2575" transform="matrix(0.052335956242943966,1.0445269365478544,-0.9986295347545738,-0.8234386409862244,778.5174314046519,432.2169101110778)"></path><path d="M520.860850697748 409.9568913931929C524.6597562859815 407.76398726242854 529.3402437140185 407.76398726242854 533.139149302252 409.95750530812313L600.6108557937216 448.91224937570234C604.4097613819551 451.10515350646676 606.7500050959736 455.1588337907437 606.7500050959736 459.5452559672027V537.4547441023611C606.7500050959736 541.8411662788201 604.4097613819551 545.8948465630971 600.6108557937216 548.0883646087917L533.139149302252 587.0431086763708C529.3402437140185 589.2360128071352 524.6597562859815 589.2360128071352 520.860850697748 587.0424947614407L453.3891442062784 548.0877506938615C449.5902386180449 545.8948465630971 447.24999490402644 541.8411662788201 447.24999490402644 537.4547441023611V459.5452559672027C447.24999490402644 455.1588337907437 449.5902386180449 451.10515350646676 453.3891442062784 448.9116354607721L520.860850697748 409.9568913931929Z " stroke-width="8.25" stroke="#404040" fill="none" opacity="0.505" transform="matrix(0.5299192642332049,1.1239066045688568,-0.848048096156426,0.08845336809103055,527.2515327692884,-76.49362212609458)"></path><path d="M454.6569307072578 321.70906041213857C460.12902198560664 318.550316060771 466.87097801439336 318.550316060771 472.3430692927422 321.70994471906783L569.5319380476961 377.82187230230494C575.004029326045 380.9806166536725 578.3750073404384 386.81969530767014 578.3750073404384 393.1380683173345V505.3619234838087C578.3750073404384 511.68029649347307 575.004029326045 517.5193751474708 569.5319380476961 520.6790038057675L472.3430692927422 576.7909313890046C466.87097801439336 579.9496757403722 460.12902198560664 579.9496757403722 454.6569307072578 576.7900470820754L357.46806195230386 520.6781194988383C351.99597067395496 517.5193751474708 348.6249926595616 511.68029649347307 348.6249926595616 505.3619234838087V393.1380683173345C348.6249926595616 386.81969530767014 351.99597067395496 380.9806166536725 357.46806195230386 377.82098799537573L454.6569307072578 321.70906041213857Z " stroke-width="12.125" stroke="#404040" fill="none" opacity="0.7525" transform="matrix(0.8746197071393957,0.6988277010007812,-0.48480962024633706,0.7559875478026578,244.0759652427765,-189.67361561213158)"></path><path d="M388.4530107167675 233.46125231926777C395.59828768523175 229.33666774729716 404.40171231476825 229.33666774729716 411.5469892832325 233.46240701819613L538.4530203016707 306.7315181170911C545.5982972701349 310.8561026890618 550.0000095849032 318.48057971278024 550.0000095849032 326.7309035556499V473.2691257534399C550.0000095849032 481.5194495963096 545.5982972701349 489.14392662002797 538.4530203016707 493.26966589092694L411.5469892832325 566.538776989822C404.40171231476825 570.6633615617925 395.59828768523175 570.6633615617925 388.4530107167675 566.5376222908938L261.54697969832927 493.26851119199864C254.401702729865 489.14392662002797 249.99999041509682 481.5194495963096 249.99999041509682 473.2691257534399V326.7309035556499C249.99999041509682 318.48057971278024 254.401702729865 310.8561026890618 261.54697969832927 306.7303634181629L388.4530107167675 233.46125231926777Z " stroke-width="16" stroke="#262626" fill="none" opacity="1" transform="matrix(1,0,0,1,0,0)"></path></g></svg>